<?xml version="1.0" encoding="UTF-8"?>
<svg width="55px" height="26px" viewBox="0 0 55 26" version="1.1" xmlns="http://www.w3.org/2000/svg" xmlns:xlink="http://www.w3.org/1999/xlink">
    <!-- Generator: Sketch 55.2 (78181) - https://sketchapp.com -->
    <title>Group 3</title>
    <desc>Created with Sketch.</desc>
    <g id="Page-1" stroke="none" stroke-width="1" fill="none" fill-rule="evenodd">
        <g id="Group-3" transform="translate(0.623762, 0.783674)" fill="#FFFFFF" fill-rule="nonzero">
            <g id="Group">
                <path d="M10.0125307,13.3951723 L10.0026468,13.4061466 C9.48296173,13.9831692 9.18992014,14.7314455 9.18992014,15.5238676 C9.18992014,17.2720412 10.6070949,18.689216 12.3552685,18.689216 C14.1034422,18.689216 15.5206169,17.2720412 15.5206169,15.5238676 C15.5206169,14.7105792 15.2118836,13.9441855 14.6674311,13.3620645 L14.6609765,13.3551633 L13.1563152,11.850502 L17.158823,7.84799414 L17.158823,18.1238437 C17.158823,18.4360902 17.4119488,18.689216 17.7241953,18.689216 C18.0364417,18.689216 18.2895675,18.4360902 18.2895675,18.1238437 L18.2895675,6.66505539 C18.2895675,6.31117605 18.0026916,6.02430017 17.6488123,6.02430017 C17.4788734,6.02430017 17.3158949,6.09180812 17.1957299,6.21197303 L12.3567581,11.0509449 L7.51778623,6.21197303 C7.26755576,5.96174254 6.861852,5.96174254 6.61162151,6.21197303 C6.49145661,6.33213793 6.42394865,6.49511654 6.42394865,6.66505539 L6.42394865,18.1238437 C6.42394865,18.4360902 6.67707443,18.689216 6.9893209,18.689216 C7.30156737,18.689216 7.55469314,18.4360902 7.55469314,18.1238437 L7.55469314,7.84799414 L11.557201,11.850502 L10.0125307,13.3951723 Z M13.8476523,14.1409533 C14.1942991,14.5147903 14.3898725,15.0032819 14.3898725,15.5238676 C14.3898725,16.6475483 13.4789493,17.5584715 12.3552685,17.5584715 C11.2315878,17.5584715 10.3206646,16.6475483 10.3206646,15.5238676 C10.3206646,15.0183848 10.5049758,14.5430689 10.8336061,14.1732111 L12.3567581,12.6500591 L13.8476523,14.1409533 Z" id="Path"></path>
                <path d="M12.3567581,24.7135162 C19.1812071,24.7135162 24.7135162,19.1812071 24.7135162,12.3567581 C24.7135162,5.53230903 19.1812071,-1.42108547e-14 12.3567581,-1.42108547e-14 C5.53230903,-1.42108547e-14 0,5.53230903 0,12.3567581 C0,19.1812071 5.53230903,24.7135162 12.3567581,24.7135162 Z M12.3567581,23.35349 C6.28343072,23.35349 1.36002611,18.4300854 1.36002611,12.3567581 C1.36002611,6.28343072 6.28343072,1.36002611 12.3567581,1.36002611 C18.4300854,1.36002611 23.35349,6.28343072 23.35349,12.3567581 C23.35349,18.4300854 18.4300854,23.35349 12.3567581,23.35349 Z" id="Oval"></path>
            </g>
            <g id="Group-2" transform="translate(29.087436, 0.000000)">
                <path d="M12.3567581,24.7135162 C19.1812071,24.7135162 24.7135162,19.1812071 24.7135162,12.3567581 C24.7135162,5.53230903 19.1812071,-1.42108547e-14 12.3567581,-1.42108547e-14 C5.53230903,-1.42108547e-14 -1.42108547e-14,5.53230903 -1.42108547e-14,12.3567581 C-1.42108547e-14,19.1812071 5.53230903,24.7135162 12.3567581,24.7135162 Z M12.3567581,23.35349 C6.28343072,23.35349 1.36002611,18.4300854 1.36002611,12.3567581 C1.36002611,6.28343072 6.28343072,1.36002611 12.3567581,1.36002611 C18.4300854,1.36002611 23.35349,6.28343072 23.35349,12.3567581 C23.35349,18.4300854 18.4300854,23.35349 12.3567581,23.35349 Z" id="Oval"></path>
                <path d="M18.1925703,16.3805011 L6.04470877,16.3805011 L6.04470877,8.56320602 L12.2429812,8.56320602 L12.2429812,7.72454354 L5.70924378,7.72454354 C5.43133548,7.72454354 5.20604629,7.94983272 5.20604629,8.22774102 L5.20604629,16.7159661 C5.20604629,16.9938744 5.43133548,17.2191636 5.70924378,17.2191636 L18.5280353,17.2191636 C18.8059436,17.2191636 19.0312327,16.9938744 19.0312327,16.7159661 L19.0312327,8.22774102 C19.0312327,7.94983272 18.8059436,7.72454354 18.5280353,7.72454354 L16.1798681,7.72454354 L16.1798681,8.56320602 L18.1925703,8.56320602 L18.1925703,16.3805011 Z" id="Path"></path>
                <path d="M12.5706975,8.14028394 L13.1436722,7.52576081 C13.9359994,6.67597918 15.0114154,6.15379759 16.1589169,6.05097127 L16.1589169,12.8926468 C14.8051143,13.0351853 13.6046243,13.861338 12.9940806,15.099572 L12.5706975,15.9582285 L12.5706975,8.14028394 Z M13.0508591,16.8808224 L13.7462747,15.470461 C14.2779791,14.39212 15.3759467,13.7093175 16.5782482,13.7093175 L16.9975794,13.7093175 L16.9975794,5.19356473 L16.5782482,5.19356473 C15.043199,5.19356473 13.5771002,5.83110133 12.5302748,6.95383567 L11.732035,7.80995861 L11.732035,16.6080495 L12.4976527,16.6080495 L13.0508591,16.8808224 Z" id="Path"></path>
                <polygon id="Path-4" points="11.6564929 7.94471907 11.6564929 17.2191636 12.6564929 17.2191636 12.6564929 7.94471907"></polygon>
            </g>
        </g>
    </g>
</svg>