<?xml version="1.0" encoding="UTF-8"?>
<svg width="55px" height="26px" viewBox="0 0 55 26" version="1.1" xmlns="http://www.w3.org/2000/svg" xmlns:xlink="http://www.w3.org/1999/xlink">
    <!-- Generator: Sketch 55.2 (78181) - https://sketchapp.com -->
    <title>Group</title>
    <desc>Created with Sketch.</desc>
    <g id="Page-1" stroke="none" stroke-width="1" fill="none" fill-rule="evenodd">
        <g id="Group" transform="translate(0.623762, 0.783674)" fill="#2B2B2B" fill-rule="nonzero">
            <path d="M10.0125307,13.3951723 L10.0026468,13.4061466 C9.48296173,13.9831692 9.18992014,14.7314455 9.18992014,15.5238676 C9.18992014,17.2720412 10.6070949,18.689216 12.3552685,18.689216 C14.1034422,18.689216 15.5206169,17.2720412 15.5206169,15.5238676 C15.5206169,14.7105792 15.2118836,13.9441855 14.6674311,13.3620645 L14.6609765,13.3551633 L13.1563152,11.850502 L17.158823,7.84799414 L17.158823,18.1238437 C17.158823,18.4360902 17.4119488,18.689216 17.7241953,18.689216 C18.0364417,18.689216 18.2895675,18.4360902 18.2895675,18.1238437 L18.2895675,6.66505539 C18.2895675,6.31117605 18.0026916,6.02430017 17.6488123,6.02430017 C17.4788734,6.02430017 17.3158949,6.09180812 17.1957299,6.21197303 L12.3567581,11.0509449 L7.51778623,6.21197303 C7.26755576,5.96174254 6.861852,5.96174254 6.61162151,6.21197303 C6.49145661,6.33213793 6.42394865,6.49511654 6.42394865,6.66505539 L6.42394865,18.1238437 C6.42394865,18.4360902 6.67707443,18.689216 6.9893209,18.689216 C7.30156737,18.689216 7.55469314,18.4360902 7.55469314,18.1238437 L7.55469314,7.84799414 L11.557201,11.850502 L10.0125307,13.3951723 Z M13.8476523,14.1409533 C14.1942991,14.5147903 14.3898725,15.0032819 14.3898725,15.5238676 C14.3898725,16.6475483 13.4789493,17.5584715 12.3552685,17.5584715 C11.2315878,17.5584715 10.3206646,16.6475483 10.3206646,15.5238676 C10.3206646,15.0183848 10.5049758,14.5430689 10.8336061,14.1732111 L12.3567581,12.6500591 L13.8476523,14.1409533 Z" id="Path"></path>
            <path d="M12.3567581,24.7135162 C19.1812071,24.7135162 24.7135162,19.1812071 24.7135162,12.3567581 C24.7135162,5.53230903 19.1812071,-1.42108547e-14 12.3567581,-1.42108547e-14 C5.53230903,-1.42108547e-14 -1.42108547e-14,5.53230903 -1.42108547e-14,12.3567581 C-1.42108547e-14,19.1812071 5.53230903,24.7135162 12.3567581,24.7135162 Z M12.3567581,23.35349 C6.28343072,23.35349 1.36002611,18.4300854 1.36002611,12.3567581 C1.36002611,6.28343072 6.28343072,1.36002611 12.3567581,1.36002611 C18.4300854,1.36002611 23.35349,6.28343072 23.35349,12.3567581 C23.35349,18.4300854 18.4300854,23.35349 12.3567581,23.35349 Z" id="Oval"></path>
            <path d="M41.4441943,24.7135162 C48.2686433,24.7135162 53.8009523,19.1812071 53.8009523,12.3567581 C53.8009523,5.53230903 48.2686433,-1.42108547e-14 41.4441943,-1.42108547e-14 C34.6197452,-1.42108547e-14 29.0874362,5.53230903 29.0874362,12.3567581 C29.0874362,19.1812071 34.6197452,24.7135162 41.4441943,24.7135162 Z M41.4441943,23.35349 C35.3708669,23.35349 30.4474623,18.4300854 30.4474623,12.3567581 C30.4474623,6.28343072 35.3708669,1.36002611 41.4441943,1.36002611 C47.5175216,1.36002611 52.4409262,6.28343072 52.4409262,12.3567581 C52.4409262,18.4300854 47.5175216,23.35349 41.4441943,23.35349 Z" id="Oval"></path>
            <path d="M47.2800064,16.3805011 L35.132145,16.3805011 L35.132145,8.56320602 L41.3304174,8.56320602 L41.3304174,7.72454354 L34.79668,7.72454354 C34.5187717,7.72454354 34.2934825,7.94983272 34.2934825,8.22774102 L34.2934825,16.7159661 C34.2934825,16.9938744 34.5187717,17.2191636 34.79668,17.2191636 L47.6154714,17.2191636 C47.8933797,17.2191636 48.1186689,16.9938744 48.1186689,16.7159661 L48.1186689,8.22774102 C48.1186689,7.94983272 47.8933797,7.72454354 47.6154714,7.72454354 L45.2673043,7.72454354 L45.2673043,8.56320602 L47.2800064,8.56320602 L47.2800064,16.3805011 Z" id="Path"></path>
            <path d="M41.6581336,8.14028394 L42.2311084,7.52576081 C43.0234356,6.67597918 44.0988516,6.15379759 45.2463531,6.05097127 L45.2463531,12.8926468 C43.8925504,13.0351853 42.6920605,13.861338 42.0815168,15.099572 L41.6581336,15.9582285 L41.6581336,8.14028394 Z M42.1382953,16.8808224 L42.8337109,15.470461 C43.3654153,14.39212 44.4633829,13.7093175 45.6656843,13.7093175 L46.0850156,13.7093175 L46.0850156,5.19356473 L45.6656843,5.19356473 C44.1306352,5.19356473 42.6645364,5.83110133 41.617711,6.95383567 L40.8194712,7.80995861 L40.8194712,16.6080495 L41.5850889,16.6080495 L42.1382953,16.8808224 Z" id="Path"></path>
            <polygon id="Path-4" points="40.7439291 7.94471907 40.7439291 17.2191636 41.7439291 17.2191636 41.7439291 7.94471907"></polygon>
        </g>
    </g>
</svg>