<?xml version="1.0" encoding="UTF-8"?>
<svg width="101px" height="101px" viewBox="0 0 101 101" version="1.1" xmlns="http://www.w3.org/2000/svg" xmlns:xlink="http://www.w3.org/1999/xlink">
    <!-- Generator: Sketch 55.1 (78136) - https://sketchapp.com -->
    <title>Group 2</title>
    <desc>Created with Sketch.</desc>
    <g id="Page-1" stroke="none" stroke-width="1" fill="none" fill-rule="evenodd">
        <g id="Group-2" transform="translate(0.500000, 0.500000)" fill="#2b2b2b" fill-rule="nonzero">
            <path d="M38.5302497,55.226171 L38.4822221,55.2794975 C35.9569721,58.0833611 34.5330265,61.71938 34.5330265,65.5699119 C34.5330265,74.0646247 41.4193518,80.9509501 49.9140647,80.9509501 C58.4087776,80.9509501 65.2951029,74.0646247 65.2951029,65.5699119 C65.2951029,61.6179869 63.794908,57.893932 61.1493085,55.0652939 L61.117944,55.0317594 L53.8065048,47.7203201 L73.2554621,28.2713628 L73.2554621,78.2036973 C73.2554621,79.7209631 74.485449,80.9509501 76.0027148,80.9509501 C77.5199806,80.9509501 78.7499676,79.7209631 78.7499676,78.2036973 L78.7499676,22.5232353 C78.7499676,20.8036674 77.3559824,19.4096822 75.6364145,19.4096822 C74.8106488,19.4096822 74.0187044,19.7377163 73.4347999,20.3216208 L49.9213027,43.835118 L26.4078054,20.3216208 C25.1918873,19.1057026 23.2204945,19.1057026 22.0045763,20.3216208 C21.4206719,20.9055252 21.0926377,21.6974697 21.0926377,22.5232353 L21.0926377,78.2036973 C21.0926377,79.7209631 22.3226247,80.9509501 23.8398905,80.9509501 C25.3571563,80.9509501 26.5871432,79.7209631 26.5871432,78.2036973 L26.5871432,28.2713628 L46.0361006,47.7203201 L38.5302497,55.226171 Z M57.1658453,58.8500649 C58.8502689,60.6666109 59.8005974,63.0402854 59.8005974,65.5699119 C59.8005974,71.0300931 55.374246,75.4564446 49.9140647,75.4564446 C44.4538834,75.4564446 40.027532,71.0300931 40.027532,65.5699119 C40.027532,63.1136733 40.9231356,60.8040217 42.5200133,59.0068116 L49.9213027,51.6055222 L57.1658453,58.8500649 Z" id="Path"></path>
            <path d="M49.9213027,99.8426053 C77.4920768,99.8426053 99.8426053,77.4920768 99.8426053,49.9213027 C99.8426053,22.3505285 77.4920768,0 49.9213027,0 C22.3505285,0 0,22.3505285 0,49.9213027 C0,77.4920768 22.3505285,99.8426053 49.9213027,99.8426053 Z M49.9213027,94.3480998 C25.3850601,94.3480998 5.49450549,74.4575452 5.49450549,49.9213027 C5.49450549,25.3850601 25.3850601,5.49450549 49.9213027,5.49450549 C74.4575452,5.49450549 94.3480998,25.3850601 94.3480998,49.9213027 C94.3480998,74.4575452 74.4575452,94.3480998 49.9213027,94.3480998 Z" id="Oval"></path>
        </g>
    </g>
</svg>
