<?xml version="1.0" encoding="UTF-8"?>
<svg width="71px" height="101px" viewBox="0 0 71 101" version="1.1" xmlns="http://www.w3.org/2000/svg" xmlns:xlink="http://www.w3.org/1999/xlink">
    <!-- Generator: Sketch 55.2 (78181) - https://sketchapp.com -->
    <title>✌ copy</title>
    <desc>Created with Sketch.</desc>
    <g id="Design" stroke="none" stroke-width="1" fill="none" fill-rule="evenodd">
        <path d="M59.0786133,42.9462891 C63.1801963,43.7210325 66.0740476,45.452786 67.7602539,48.1416016 C69.4464603,50.8304171 70.2895508,55.068656 70.2895508,60.8564453 C70.2895508,72.3408777 66.8374369,81.7401978 59.9331055,89.0546875 C53.0287741,96.3691772 44.1991098,100.026367 33.4438477,100.026367 C29.2055452,100.026367 25.0926306,99.2630285 21.1049805,97.7363281 C17.1173303,96.2096278 13.6880026,94.0791152 10.8168945,91.3447266 C7.53562813,88.336899 5.07471523,85.1582199 3.43408203,81.8085938 C1.79344883,78.4589676 0.973144531,75.0296399 0.973144531,71.5205078 C0.973144531,67.6012174 1.81623506,64.5706487 3.50244141,62.4287109 C5.18864775,60.2867731 7.85463672,58.8284544 11.5004883,58.0537109 C10.8168911,56.4586509 10.315594,55.1142633 9.99658203,54.0205078 C9.67757002,52.9267523 9.51806641,52.0836618 9.51806641,51.4912109 C9.51806641,49.4404194 10.6004124,47.3440862 12.7651367,45.2021484 C14.9298611,43.0602106 16.9692287,41.9892578 18.8833008,41.9892578 C19.7036174,41.9892578 20.5694941,42.1373683 21.480957,42.4335938 C22.3924199,42.7298192 23.4405865,43.2197231 24.6254883,43.9033203 C21.1163562,33.9683748 18.5642983,26.3008083 16.9692383,20.9003906 C15.3741782,15.499973 14.5766602,11.7744243 14.5766602,9.72363281 C14.5766602,6.89809785 15.3058195,4.65365415 16.7641602,2.99023438 C18.2225008,1.3268146 20.2049028,0.495117188 22.7114258,0.495117188 C26.9953014,0.495117188 32.4184242,10.065334 38.980957,29.2060547 C40.1202856,32.4873211 40.9861624,35.0165927 41.5786133,36.7939453 C42.0799179,35.3811778 42.786291,33.3759896 43.6977539,30.7783203 C50.2602867,11.8198922 55.9112719,2.34082031 60.6508789,2.34082031 C62.9751093,2.34082031 64.8321871,3.12694526 66.222168,4.69921875 C67.6121489,6.27149224 68.3071289,8.37921855 68.3071289,11.0224609 C68.3071289,13.0276793 67.5437902,16.6962624 66.0170898,22.0283203 C64.4903895,27.3603782 62.1775871,34.3329647 59.0786133,42.9462891 Z M54.1567383,41.7841797 C57.210139,33.4898674 59.5913,26.6426051 61.300293,21.2421875 C63.0092859,15.8417699 63.8637695,12.5263733 63.8637695,11.2958984 C63.8637695,9.97427725 63.5789417,8.94889687 63.0092773,8.21972656 C62.439613,7.49055625 61.6534881,7.12597656 60.6508789,7.12597656 C59.3748309,7.12597656 58.0760157,8.18553628 56.7543945,10.3046875 C55.4327733,12.4238387 53.9744546,15.8303802 52.3793945,20.5244141 L45.543457,40.2802734 L54.1567383,41.7841797 Z M37.340332,39.4599609 L29.9575195,18.1318359 C28.0434475,12.7086317 26.5623425,9.1653729 25.5141602,7.50195312 C24.4659778,5.83853335 23.3266663,5.00683594 22.0961914,5.00683594 C21.1391554,5.00683594 20.3644235,5.37141563 19.7719727,6.10058594 C19.1795218,6.82975625 18.8833008,7.80956416 18.8833008,9.04003906 C18.8833008,11.1364037 19.6808188,14.7822006 21.2758789,19.9775391 C22.870939,25.1728775 25.2634932,31.9859604 28.4536133,40.4169922 C28.7270521,39.9156876 29.1144181,39.562501 29.6157227,39.3574219 C30.1170272,39.1523427 30.8006142,39.0498047 31.6665039,39.0498047 C31.9399428,39.0498047 32.4868123,39.0725909 33.3071289,39.1181641 C34.1274455,39.1637372 35.4718331,39.2776684 37.340332,39.4599609 Z M45.0649414,60.1728516 C43.1052962,60.0817053 41.2482184,59.8766292 39.4936523,59.5576172 C37.7390863,59.2386052 36.0642983,58.7828806 34.4692383,58.1904297 C35.1984086,59.6487703 35.8478162,61.1070891 36.4174805,62.5654297 C36.9871448,64.0237703 37.4542625,65.4593028 37.8188477,66.8720703 C38.9126031,65.504876 40.0633078,64.2630264 41.2709961,63.1464844 C42.4786844,62.0299423 43.7433202,61.0387413 45.0649414,60.1728516 Z M10.1333008,70.8369141 C10.7713248,71.6116575 11.6599878,72.750969 12.7993164,74.2548828 C15.8071439,78.402039 18.5870641,80.4755859 21.1391602,80.4755859 C22.0050499,80.4755859 22.7797817,80.2021512 23.4633789,79.6552734 C24.1469761,79.1083957 24.4887695,78.5387399 24.4887695,77.9462891 C24.4887695,77.2626919 24.0330449,76.1233804 23.121582,74.5283203 C22.2101191,72.9332603 20.9568765,71.133148 19.3618164,69.1279297 C17.5388906,66.8036993 16.0236063,65.1061251 14.815918,64.0351562 C13.6082296,62.9641874 12.6398148,62.4287109 11.9106445,62.4287109 C10.3155845,62.4287109 8.84587261,63.2831946 7.50146484,64.9921875 C6.15705708,66.7011804 5.48486328,68.7177618 5.48486328,71.0419922 C5.48486328,72.9104911 5.95198101,74.9954312 6.88623047,77.296875 C7.82047993,79.5983188 9.17626064,81.9111212 10.9536133,84.2353516 C13.6424288,87.83563 16.9806116,90.604157 20.9682617,92.5410156 C24.9559119,94.4778743 29.3650475,95.4462891 34.1958008,95.4462891 C43.082564,95.4462891 50.5222682,92.1308925 56.5151367,85.5 C62.5080052,78.8691075 65.5043945,70.5635265 65.5043945,60.5830078 C65.5043945,57.5296071 65.2765322,55.1028736 64.8208008,53.3027344 C64.3650693,51.5025952 63.6131237,50.1923869 62.5649414,49.3720703 C60.6964425,47.8225834 57.0620387,46.4326233 51.6616211,45.2021484 C46.2612035,43.9716735 40.6216114,43.3564453 34.7426758,43.3564453 C33.1020426,43.3564453 31.9399448,43.6298801 31.2563477,44.1767578 C30.5727505,44.7236355 30.230957,45.657871 30.230957,46.9794922 C30.230957,50.078466 31.9627105,52.3229097 35.4262695,53.7128906 C38.8898285,55.1028715 44.4952412,55.7978516 52.2426758,55.7978516 L55.0454102,55.7978516 C55.6834342,55.7978516 56.1961244,56.037107 56.5834961,56.515625 C56.9708678,56.994143 57.2329095,57.7119093 57.3696289,58.6689453 C56.5948854,59.3981156 54.9998493,60.229813 52.5844727,61.1640625 C50.169096,62.098312 48.3234113,63.0211543 47.0473633,63.9326172 C44.3129746,65.9378355 42.1141034,68.3189966 40.4506836,71.0761719 C38.7872638,73.8333471 37.9555664,76.4423705 37.9555664,78.9033203 C37.9555664,80.4072341 38.308753,82.2187394 39.0151367,84.3378906 C39.7215205,86.4570418 40.074707,87.7672501 40.074707,88.2685547 L40.074707,88.7470703 L39.9379883,89.3623047 C37.9327699,89.2255853 36.3491269,88.0520944 35.1870117,85.8417969 C34.0248965,83.6314994 33.4438477,80.6806825 33.4438477,76.9892578 L33.4438477,76.3740234 C33.0792625,76.6930354 32.7260759,76.9208978 32.3842773,77.0576172 C32.0424788,77.1943366 31.666506,77.2626953 31.2563477,77.2626953 C30.8461894,77.2626953 30.4588234,77.228516 30.0942383,77.1601562 C29.7296531,77.0917965 29.319501,76.9892585 28.8637695,76.8525391 C29.000489,77.3538437 29.103027,77.8437476 29.1713867,78.3222656 C29.2397464,78.8007836 29.2739258,79.1767564 29.2739258,79.4501953 C29.2739258,81.1364017 28.6131251,82.5833273 27.2915039,83.7910156 C25.9698827,84.998704 24.3976328,85.6025391 22.574707,85.6025391 C19.7035989,85.6025391 16.7869614,84.2011859 13.824707,81.3984375 C10.8624526,78.5956891 9.38134766,75.8499483 9.38134766,73.1611328 C9.38134766,72.6598282 9.43831323,72.2154967 9.55224609,71.828125 C9.66617896,71.4407533 9.85986191,71.1103529 10.1333008,70.8369141 Z M30.6411133,72.4775391 C31.4158567,72.4775391 32.1222299,72.1243525 32.7602539,71.4179688 C33.3982779,70.711585 33.7172852,69.9482463 33.7172852,69.1279297 C33.7172852,68.2620399 33.0906638,66.2454585 31.8374023,63.078125 C30.5841409,59.9107915 29.0232841,56.800471 27.1547852,53.7470703 C25.7875908,51.4684131 24.4432032,49.7480527 23.121582,48.5859375 C21.7999608,47.4238223 20.5467182,46.8427734 19.3618164,46.8427734 C18.4047804,46.8427734 17.3452207,47.4466085 16.1831055,48.6542969 C15.0209903,49.8619852 14.4399414,50.9899036 14.4399414,52.0380859 C14.4399414,53.1318414 15.0095972,54.77245 16.1489258,56.9599609 C17.2882544,59.1474719 18.8149318,61.4716674 20.7290039,63.9326172 C22.7342223,66.6214327 24.6254794,68.7177659 26.402832,70.2216797 C28.1801847,71.7255935 29.592931,72.4775391 30.6411133,72.4775391 Z" id="✌-copy" fill="#2B2B2B" fill-rule="nonzero"></path>
    </g>
</svg>