<?xml version="1.0" encoding="UTF-8"?>
<svg width="70px" height="101px" viewBox="0 0 70 101" version="1.1" xmlns="http://www.w3.org/2000/svg" xmlns:xlink="http://www.w3.org/1999/xlink">
    <!-- Generator: Sketch 55.2 (78181) - https://sketchapp.com -->
    <title>✌</title>
    <desc>Created with Sketch.</desc>
    <g id="Design" stroke="none" stroke-width="1" fill="none" fill-rule="evenodd">
        <path d="M58.5678711,42.9462891 C62.6694541,43.7210325 65.5633054,45.452786 67.2495117,48.1416016 C68.9357181,50.8304171 69.7788086,55.068656 69.7788086,60.8564453 C69.7788086,72.3408777 66.3266947,81.7401978 59.4223633,89.0546875 C52.5180319,96.3691772 43.6883676,100.026367 32.9331055,100.026367 C28.694803,100.026367 24.5818884,99.2630285 20.5942383,97.7363281 C16.6065881,96.2096278 13.1772604,94.0791152 10.3061523,91.3447266 C7.02488594,88.336899 4.56397305,85.1582199 2.92333984,81.8085938 C1.28270664,78.4589676 0.462402344,75.0296399 0.462402344,71.5205078 C0.462402344,67.6012174 1.30549287,64.5706487 2.99169922,62.4287109 C4.67790557,60.2867731 7.34389453,58.8284544 10.9897461,58.0537109 C10.3061489,56.4586509 9.80485186,55.1142633 9.48583984,54.0205078 C9.16682783,52.9267523 9.00732422,52.0836618 9.00732422,51.4912109 C9.00732422,49.4404194 10.0896702,47.3440862 12.2543945,45.2021484 C14.4191189,43.0602106 16.4584865,41.9892578 18.3725586,41.9892578 C19.1928752,41.9892578 20.058752,42.1373683 20.9702148,42.4335938 C21.8816777,42.7298192 22.9298443,43.2197231 24.1147461,43.9033203 C20.605614,33.9683748 18.0535562,26.3008083 16.4584961,20.9003906 C14.863436,15.499973 14.065918,11.7744243 14.065918,9.72363281 C14.065918,6.89809785 14.7950773,4.65365415 16.253418,2.99023438 C17.7117586,1.3268146 19.6941606,0.495117188 22.2006836,0.495117188 C26.4845592,0.495117188 31.907682,10.065334 38.4702148,29.2060547 C39.6095435,32.4873211 40.4754202,35.0165927 41.0678711,36.7939453 C41.5691757,35.3811778 42.2755488,33.3759896 43.1870117,30.7783203 C49.7495445,11.8198922 55.4005297,2.34082031 60.1401367,2.34082031 C62.4643671,2.34082031 64.3214449,3.12694526 65.7114258,4.69921875 C67.1014067,6.27149224 67.7963867,8.37921855 67.7963867,11.0224609 C67.7963867,13.0276793 67.033048,16.6962624 65.5063477,22.0283203 C63.9796473,27.3603782 61.6668449,34.3329647 58.5678711,42.9462891 Z M53.6459961,41.7841797 C56.6993968,33.4898674 59.0805579,26.6426051 60.7895508,21.2421875 C62.4985437,15.8417699 63.3530273,12.5263733 63.3530273,11.2958984 C63.3530273,9.97427725 63.0681995,8.94889687 62.4985352,8.21972656 C61.9288708,7.49055625 61.1427459,7.12597656 60.1401367,7.12597656 C58.8640887,7.12597656 57.5652735,8.18553628 56.2436523,10.3046875 C54.9220312,12.4238387 53.4637124,15.8303802 51.8686523,20.5244141 L45.0327148,40.2802734 L53.6459961,41.7841797 Z M36.8295898,39.4599609 L29.4467773,18.1318359 C27.5327053,12.7086317 26.0516003,9.1653729 25.003418,7.50195312 C23.9552356,5.83853335 22.8159241,5.00683594 21.5854492,5.00683594 C20.6284132,5.00683594 19.8536813,5.37141563 19.2612305,6.10058594 C18.6687796,6.82975625 18.3725586,7.80956416 18.3725586,9.04003906 C18.3725586,11.1364037 19.1700767,14.7822006 20.7651367,19.9775391 C22.3601968,25.1728775 24.752751,31.9859604 27.9428711,40.4169922 C28.21631,39.9156876 28.6036759,39.562501 29.1049805,39.3574219 C29.6062851,39.1523427 30.289872,39.0498047 31.1557617,39.0498047 C31.4292006,39.0498047 31.9760701,39.0725909 32.7963867,39.1181641 C33.6167033,39.1637372 34.9610909,39.2776684 36.8295898,39.4599609 Z M44.5541992,60.1728516 C42.594554,60.0817053 40.7374762,59.8766292 38.9829102,59.5576172 C37.2283441,59.2386052 35.5535562,58.7828806 33.9584961,58.1904297 C34.6876664,59.6487703 35.337074,61.1070891 35.9067383,62.5654297 C36.4764026,64.0237703 36.9435203,65.4593028 37.3081055,66.8720703 C38.4018609,65.504876 39.5525656,64.2630264 40.7602539,63.1464844 C41.9679422,62.0299423 43.232578,61.0387413 44.5541992,60.1728516 Z M9.62255859,70.8369141 C10.2605826,71.6116575 11.1492456,72.750969 12.2885742,74.2548828 C15.2964018,78.402039 18.0763219,80.4755859 20.628418,80.4755859 C21.4943077,80.4755859 22.2690396,80.2021512 22.9526367,79.6552734 C23.6362339,79.1083957 23.9780273,78.5387399 23.9780273,77.9462891 C23.9780273,77.2626919 23.5223027,76.1233804 22.6108398,74.5283203 C21.699377,72.9332603 20.4461343,71.133148 18.8510742,69.1279297 C17.0281484,66.8036993 15.5128641,65.1061251 14.3051758,64.0351562 C13.0974875,62.9641874 12.1290727,62.4287109 11.3999023,62.4287109 C9.80484229,62.4287109 8.33513042,63.2831946 6.99072266,64.9921875 C5.64631489,66.7011804 4.97412109,68.7177618 4.97412109,71.0419922 C4.97412109,72.9104911 5.44123882,74.9954312 6.37548828,77.296875 C7.30973774,79.5983188 8.66551846,81.9111212 10.4428711,84.2353516 C13.1316866,87.83563 16.4698694,90.604157 20.4575195,92.5410156 C24.4451697,94.4778743 28.8543053,95.4462891 33.6850586,95.4462891 C42.5718218,95.4462891 50.011526,92.1308925 56.0043945,85.5 C61.997263,78.8691075 64.9936523,70.5635265 64.9936523,60.5830078 C64.9936523,57.5296071 64.76579,55.1028736 64.3100586,53.3027344 C63.8543271,51.5025952 63.1023815,50.1923869 62.0541992,49.3720703 C60.1857003,47.8225834 56.5512965,46.4326233 51.1508789,45.2021484 C45.7504613,43.9716735 40.1108692,43.3564453 34.2319336,43.3564453 C32.5913004,43.3564453 31.4292026,43.6298801 30.7456055,44.1767578 C30.0620083,44.7236355 29.7202148,45.657871 29.7202148,46.9794922 C29.7202148,50.078466 31.4519684,52.3229097 34.9155273,53.7128906 C38.3790863,55.1028715 43.984499,55.7978516 51.7319336,55.7978516 L54.534668,55.7978516 C55.172692,55.7978516 55.6853822,56.037107 56.0727539,56.515625 C56.4601256,56.994143 56.7221673,57.7119093 56.8588867,58.6689453 C56.0841433,59.3981156 54.4891071,60.229813 52.0737305,61.1640625 C49.6583538,62.098312 47.8126691,63.0211543 46.5366211,63.9326172 C43.8022324,65.9378355 41.6033612,68.3189966 39.9399414,71.0761719 C38.2765216,73.8333471 37.4448242,76.4423705 37.4448242,78.9033203 C37.4448242,80.4072341 37.7980108,82.2187394 38.5043945,84.3378906 C39.2107783,86.4570418 39.5639648,87.7672501 39.5639648,88.2685547 L39.5639648,88.7470703 L39.4272461,89.3623047 C37.4220277,89.2255853 35.8383847,88.0520944 34.6762695,85.8417969 C33.5141543,83.6314994 32.9331055,80.6806825 32.9331055,76.9892578 L32.9331055,76.3740234 C32.5685203,76.6930354 32.2153337,76.9208978 31.8735352,77.0576172 C31.5317366,77.1943366 31.1557638,77.2626953 30.7456055,77.2626953 C30.3354472,77.2626953 29.9480813,77.228516 29.5834961,77.1601562 C29.2189109,77.0917965 28.8087588,76.9892585 28.3530273,76.8525391 C28.4897468,77.3538437 28.5922848,77.8437476 28.6606445,78.3222656 C28.7290042,78.8007836 28.7631836,79.1767564 28.7631836,79.4501953 C28.7631836,81.1364017 28.1023829,82.5833273 26.7807617,83.7910156 C25.4591405,84.998704 23.8868906,85.6025391 22.0639648,85.6025391 C19.1928567,85.6025391 16.2762192,84.2011859 13.3139648,81.3984375 C10.3517104,78.5956891 8.87060547,75.8499483 8.87060547,73.1611328 C8.87060547,72.6598282 8.92757104,72.2154967 9.04150391,71.828125 C9.15543677,71.4407533 9.34911973,71.1103529 9.62255859,70.8369141 Z M30.1303711,72.4775391 C30.9051146,72.4775391 31.6114877,72.1243525 32.2495117,71.4179688 C32.8875357,70.711585 33.206543,69.9482463 33.206543,69.1279297 C33.206543,68.2620399 32.5799216,66.2454585 31.3266602,63.078125 C30.0733987,59.9107915 28.5125419,56.800471 26.644043,53.7470703 C25.2768486,51.4684131 23.932461,49.7480527 22.6108398,48.5859375 C21.2892187,47.4238223 20.035976,46.8427734 18.8510742,46.8427734 C17.8940382,46.8427734 16.8344785,47.4466085 15.6723633,48.6542969 C14.5102481,49.8619852 13.9291992,50.9899036 13.9291992,52.0380859 C13.9291992,53.1318414 14.498855,54.77245 15.6381836,56.9599609 C16.7775122,59.1474719 18.3041896,61.4716674 20.2182617,63.9326172 C22.2234801,66.6214327 24.1147372,68.7177659 25.8920898,70.2216797 C27.6694425,71.7255935 29.0821888,72.4775391 30.1303711,72.4775391 Z" id="✌" fill="#FFFFFF" fill-rule="nonzero"></path>
    </g>
</svg>