<?xml version="1.0" encoding="UTF-8"?>
<svg width="41px" height="79px" viewBox="0 0 41 79" version="1.1" xmlns="http://www.w3.org/2000/svg" xmlns:xlink="http://www.w3.org/1999/xlink">
    <!-- Generator: Sketch 55.2 (78181) - https://sketchapp.com -->
    <title>owl-white</title>
    <desc>Created with Sketch.</desc>
    <g id="Page-1" stroke="none" stroke-width="1" fill="none" fill-rule="evenodd">
        <g id="owl-white" fill="#FFFFFF" fill-rule="nonzero">
            <path d="M37.8776187,17.7116958 L37.8776187,53.1011315 C37.8776187,62.4559688 30.2940248,70.0395627 20.9391875,70.0395627 C11.5843503,70.0395627 4.00075629,62.4559688 4.00075629,53.1011315 L4.00075629,17.7116958 L5.66396139,17.7116958 L5.66396139,20.8169024 L8.68910792,20.8169024 L8.68910792,14.6865493 L0.975609756,14.6865493 L0.975609756,53.1011315 C0.975609756,64.126711 9.91360796,73.0647093 20.9391875,73.0647093 C31.964767,73.0647093 40.9027653,64.126711 40.9027653,53.1011315 L40.9027653,14.6865493 L33.1676273,14.6865493 L33.1676273,20.8123233 L36.1927739,20.8123233 L36.1927739,17.7116958 L37.8776187,17.7116958 Z" id="Path"></path>
            <polygon id="Path" points="9.58920677 22.7029863 7.45010515 24.842088 20.9391875 38.3311703 34.2763739 24.993984 32.1372722 22.8548823 20.9391875 34.052967"></polygon>
            <path d="M11.5920524,26.5427313 C14.8660467,26.5427313 17.5201435,23.8886347 17.5201435,20.6146404 C17.5201435,17.3406461 14.8660467,14.6865493 11.5920524,14.6865493 C8.31805817,14.6865493 5.66396139,17.3406461 5.66396139,20.6146404 C5.66396139,23.8886347 8.31805817,26.5427313 11.5920524,26.5427313 Z M11.5920524,23.517585 C9.98880045,23.517585 8.68910792,22.2178923 8.68910792,20.6146404 C8.68910792,19.0113884 9.98880045,17.7116958 11.5920524,17.7116958 C13.1953044,17.7116958 14.494997,19.0113884 14.494997,20.6146404 C14.494997,22.2178923 13.1953044,23.517585 11.5920524,23.517585 Z" id="Oval-Copy"></path>
            <path d="M17.5201435,78.6608211 C17.5201435,75.3868267 14.8660467,72.7327301 11.5920524,72.7327301 C8.31805817,72.7327301 5.66396139,75.3868267 5.66396139,78.6608211 L8.68910792,78.6608211 C8.68910792,77.0575692 9.98880045,75.7578765 11.5920524,75.7578765 C13.1953044,75.7578765 14.494997,77.0575692 14.494997,78.6608211 L17.5201435,78.6608211 Z" id="Shape"></path>
            <path d="M30.2646827,26.5427313 C33.5386771,26.5427313 36.1927739,23.8886347 36.1927739,20.6146404 C36.1927739,17.3406461 33.5386771,14.6865493 30.2646827,14.6865493 C26.9906884,14.6865493 24.3365916,17.3406461 24.3365916,20.6146404 C24.3365916,23.8886347 26.9906884,26.5427313 30.2646827,26.5427313 Z M30.2646827,23.517585 C28.6614308,23.517585 27.3617381,22.2178923 27.3617381,20.6146404 C27.3617381,19.0113884 28.6614308,17.7116958 30.2646827,17.7116958 C31.8679346,17.7116958 33.1676273,19.0113884 33.1676273,20.6146404 C33.1676273,22.2178923 31.8679346,23.517585 30.2646827,23.517585 Z" id="Oval-Copy-2"></path>
            <path d="M36.1927739,78.6608211 C36.1927739,75.3868267 33.5386771,72.7327301 30.2646827,72.7327301 C26.9906884,72.7327301 24.3365916,75.3868267 24.3365916,78.6608211 L27.3617381,78.6608211 C27.3617381,77.0575692 28.6614308,75.7578765 30.2646827,75.7578765 C31.8679346,75.7578765 33.1676273,77.0575692 33.1676273,78.6608211 L36.1927739,78.6608211 Z" id="Path"></path>
            <path d="M5.580237,25.4946076 L5.580237,52.7642716 C5.580237,61.2467858 12.4566734,68.123222 20.9391875,68.123222 C29.4217017,68.123222 36.298138,61.2467858 36.298138,52.7642716 L36.298138,25.4946076 L20.9391875,40.8535582 L5.580237,25.4946076 Z M20.9391875,41.7091988 L35.6931087,26.9552777 L35.6931087,52.7642716 C35.6931087,60.9126373 29.0875532,67.5181928 20.9391875,67.5181928 C12.7908218,67.5181928 6.1852663,60.9126373 6.1852663,52.7642716 L6.1852663,26.9552777 L20.9391875,41.7091988 Z" id="Path"></path>
            <polygon id="Path-2" points="11.5920524 14.6865493 2.48818302 14.6865493 2.48818302 17.7116958 11.5920524 17.7116958"></polygon>
            <polygon id="Path-2-Copy" points="40.1592511 14.6865493 30.2646827 14.6865493 30.2646827 17.7116958 40.1592511 17.7116958"></polygon>
            <polygon id="Shape" points="8.9602184 0.886267317 6.82111678 3.02536894 20.9391875 17.1434397 35.0572581 3.02536894 32.9181567 0.886267317 20.9391875 12.8652364"></polygon>
        </g>
    </g>
</svg>