<?xml version="1.0" encoding="UTF-8"?>
<svg width="41px" height="79px" viewBox="0 0 41 79" version="1.1" xmlns="http://www.w3.org/2000/svg" xmlns:xlink="http://www.w3.org/1999/xlink">
    <!-- Generator: Sketch 55.2 (78181) - https://sketchapp.com -->
    <title>owl</title>
    <desc>Created with Sketch.</desc>
    <g id="Page-1" stroke="none" stroke-width="1" fill="none" fill-rule="evenodd">
        <g id="owl" transform="translate(-1.000000, 0.000000)" fill="#2B2B2B" fill-rule="nonzero">
            <path d="M38.6289573,17.7116958 L38.6289573,53.1011315 C38.6289573,62.4559688 31.0453633,70.0395627 21.690526,70.0395627 C12.3356888,70.0395627 4.75209483,62.4559688 4.75209483,53.1011315 L4.75209483,17.7116958 L6.41529992,17.7116958 L6.41529992,20.8169024 L9.44044646,20.8169024 L9.44044646,14.6865493 L1.72694829,14.6865493 L1.72694829,53.1011315 C1.72694829,64.126711 10.6649465,73.0647093 21.690526,73.0647093 C32.7161056,73.0647093 41.6541038,64.126711 41.6541038,53.1011315 L41.6541038,14.6865493 L33.9189659,14.6865493 L33.9189659,20.8123233 L36.9441124,20.8123233 L36.9441124,17.7116958 L38.6289573,17.7116958 Z" id="Path-Copy"></path>
            <polygon id="Path-Copy-2" points="10.3405453 22.7029863 8.20144369 24.842088 21.690526 38.3311703 35.0277124 24.993984 32.8886107 22.8548823 21.690526 34.052967"></polygon>
            <path d="M12.343391,26.5427313 C15.6173853,26.5427313 18.271482,23.8886347 18.271482,20.6146404 C18.271482,17.3406461 15.6173853,14.6865493 12.343391,14.6865493 C9.0693967,14.6865493 6.41529992,17.3406461 6.41529992,20.6146404 C6.41529992,23.8886347 9.0693967,26.5427313 12.343391,26.5427313 Z M12.343391,23.517585 C10.740139,23.517585 9.44044646,22.2178923 9.44044646,20.6146404 C9.44044646,19.0113884 10.740139,17.7116958 12.343391,17.7116958 C13.946643,17.7116958 15.2463355,19.0113884 15.2463355,20.6146404 C15.2463355,22.2178923 13.946643,23.517585 12.343391,23.517585 Z" id="Oval-Copy-3"></path>
            <path d="M18.271482,78.6608211 C18.271482,75.3868267 15.6173853,72.7327301 12.343391,72.7327301 C9.0693967,72.7327301 6.41529992,75.3868267 6.41529992,78.6608211 L9.44044646,78.6608211 C9.44044646,77.0575692 10.740139,75.7578765 12.343391,75.7578765 C13.946643,75.7578765 15.2463355,77.0575692 15.2463355,78.6608211 L18.271482,78.6608211 Z" id="Shape-Copy"></path>
            <path d="M31.0160213,26.5427313 C34.2900156,26.5427313 36.9441124,23.8886347 36.9441124,20.6146404 C36.9441124,17.3406461 34.2900156,14.6865493 31.0160213,14.6865493 C27.7420269,14.6865493 25.0879301,17.3406461 25.0879301,20.6146404 C25.0879301,23.8886347 27.7420269,26.5427313 31.0160213,26.5427313 Z M31.0160213,23.517585 C29.4127694,23.517585 28.1130767,22.2178923 28.1130767,20.6146404 C28.1130767,19.0113884 29.4127694,17.7116958 31.0160213,17.7116958 C32.6192732,17.7116958 33.9189659,19.0113884 33.9189659,20.6146404 C33.9189659,22.2178923 32.6192732,23.517585 31.0160213,23.517585 Z" id="Oval-Copy-4"></path>
            <path d="M36.9441124,78.6608211 C36.9441124,75.3868267 34.2900156,72.7327301 31.0160213,72.7327301 C27.7420269,72.7327301 25.0879301,75.3868267 25.0879301,78.6608211 L28.1130767,78.6608211 C28.1130767,77.0575692 29.4127694,75.7578765 31.0160213,75.7578765 C32.6192732,75.7578765 33.9189659,77.0575692 33.9189659,78.6608211 L36.9441124,78.6608211 Z" id="Path-Copy-3"></path>
            <path d="M6.33157553,25.4946076 L6.33157553,52.7642716 C6.33157553,61.2467858 13.2080119,68.123222 21.690526,68.123222 C30.1730402,68.123222 37.0494765,61.2467858 37.0494765,52.7642716 L37.0494765,25.4946076 L21.690526,40.8535582 L6.33157553,25.4946076 Z M21.690526,41.7091988 L36.4444472,26.9552777 L36.4444472,52.7642716 C36.4444472,60.9126373 29.8388917,67.5181928 21.690526,67.5181928 C13.5421604,67.5181928 6.93660484,60.9126373 6.93660484,52.7642716 L6.93660484,26.9552777 L21.690526,41.7091988 Z" id="Path-Copy-4"></path>
            <polygon id="Path-2-Copy-2" points="12.343391 14.6865493 3.23952156 14.6865493 3.23952156 17.7116958 12.343391 17.7116958"></polygon>
            <polygon id="Path-2-Copy-3" points="40.9105897 14.6865493 31.0160213 14.6865493 31.0160213 17.7116958 40.9105897 17.7116958"></polygon>
            <polygon id="Shape-Copy-2" points="9.71155694 0.886267317 7.57245532 3.02536894 21.690526 17.1434397 35.8085967 3.02536894 33.6694952 0.886267317 21.690526 12.8652364"></polygon>
        </g>
    </g>
</svg>